<?xml version="1.0" encoding="iso-8859-1"?>
<!-- Generator: Adobe Illustrator 19.0.0, SVG Export Plug-In . SVG Version: 6.00 Build 0)  -->
<svg version="1.1" id="Capa_1" xmlns="http://www.w3.org/2000/svg" xmlns:xlink="http://www.w3.org/1999/xlink" x="0px" y="0px"
	 viewBox="0 0 504.389 504.389" style="enable-background:new 0 0 504.389 504.389;" xml:space="preserve">
<rect x="351.337" y="17.075" style="fill:#FADC60;" width="80.235" height="180.392"/>
<rect x="351.337" y="17.075" style="fill:#F2C42C;" width="80.235" height="47.521"/>
<path style="fill:#FD6F71;" d="M435.317,0h-87.725c-6.752,0-12.225,5.473-12.225,12.225v9.7c0,6.752,5.473,12.225,12.225,12.225
	h87.725c6.752,0,12.225-5.473,12.225-12.225v-9.7C447.542,5.473,442.068,0,435.317,0z"/>
<polygon style="fill:#FADC60;" points="447.542,481.551 447.542,289.786 447.542,243.113 252.194,33.113 56.847,243.113 
	56.847,289.786 56.847,481.551 "/>
<path style="fill:#F2C42C;" d="M56.847,243.113v46.673v20.202c8.239-1.779,15.9-5.952,21.828-12.048l173.52-178.453l173.518,178.452
	c5.929,6.097,13.59,10.27,21.83,12.049v-20.202v-46.673l-195.348-210L56.847,243.113z"/>
<path style="fill:#FD6F71;" d="M303.568,288.519H200.82c-11.54,0-20.895,9.355-20.895,20.895v172.137h144.538V309.414
	C324.463,297.874,315.108,288.519,303.568,288.519z"/>
<rect x="211.062" y="319.663" style="fill:#EFEDEE;" width="82.255" height="161.891"/>
<path style="fill:#4DB8CC;" d="M447.542,458.714H56.847c-19.824,0-35.896,16.071-35.896,35.896v9.778h462.487v-9.778
	C483.438,474.785,467.366,458.714,447.542,458.714z"/>
<g>
	<path style="fill:#3A484A;" d="M170.386,252.977c-4.204,0-7.611-3.408-7.611-7.611v-14.806c0-4.204,3.408-7.611,7.611-7.611
		c4.204,0,7.611,3.408,7.611,7.611v14.806C177.998,249.569,174.59,252.977,170.386,252.977z"/>
	<path style="fill:#3A484A;" d="M334.003,252.977c-4.204,0-7.612-3.408-7.612-7.611v-14.806c0-4.204,3.408-7.611,7.612-7.611
		s7.611,3.408,7.611,7.611v14.806C341.614,249.569,338.206,252.977,334.003,252.977z"/>
	<path style="fill:#3A484A;" d="M252.194,260.88c-10.065,0-19.514-4.205-25.922-11.535c-2.767-3.164-2.444-7.974,0.721-10.74
		c3.165-2.767,7.973-2.444,10.74,0.722c3.518,4.024,8.789,6.332,14.462,6.332s10.943-2.308,14.461-6.331
		c2.767-3.165,7.574-3.488,10.74-0.722c3.165,2.767,3.488,7.575,0.721,10.74C271.708,256.676,262.26,260.88,252.194,260.88z"/>
</g>
<path style="fill:#FD6F71;" d="M492.196,233.294L274.522,9.432C268.659,3.402,260.605,0,252.194,0
	c-8.41,0-16.464,3.402-22.327,9.432L12.193,233.295c-4.831,4.969-4.72,12.913,0.249,17.744l26.661,25.924
	c4.969,4.832,12.913,4.72,17.745-0.249L252.194,75.813l195.347,200.902c4.832,4.969,12.776,5.08,17.745,0.249l26.662-25.924
	C496.915,246.208,497.027,238.263,492.196,233.294z"/>
<g>
</g>
<g>
</g>
<g>
</g>
<g>
</g>
<g>
</g>
<g>
</g>
<g>
</g>
<g>
</g>
<g>
</g>
<g>
</g>
<g>
</g>
<g>
</g>
<g>
</g>
<g>
</g>
<g>
</g>
</svg>
