<?xml version="1.0" encoding="utf-8"?>
<svg xmlns="http://www.w3.org/2000/svg" style="margin: auto; background: rgb(255, 251, 243); display: block; shape-rendering: auto;" width="169" height="96" preserveAspectRatio="xMidYMid">
<style type="text/css">
  text {
    text-anchor: middle; font-size: 80px; opacity: 0;
  }
</style>
<g style="transform-origin:84.5px 48px;transform:scale(1)">
<g transform="translate(84.5,48)">
  <g transform="translate(0,0)"><g class="path" style="opacity: 1; transform-origin: -37.115px -6.1299px; animation: 1s linear -0.33s infinite normal forwards running blink-1ba32864-aa53-4e63-8c0a-7b284212a6fa;"><path d="M57.46-42.30L57.46-42.30L50.78-39.49L50.78-39.49Q50-42.03 48.69-44.14L48.69-44.14L48.69-44.14Q47.38-46.25 45.57-47.75L45.57-47.75L45.57-47.75Q43.75-49.26 41.45-50.10L41.45-50.10L41.45-50.10Q39.14-50.94 36.41-50.94L36.41-50.94L36.41-50.94Q33.48-50.94 31.04-49.96L31.04-49.96L31.04-49.96Q28.59-48.98 26.66-47.32L26.66-47.32L26.66-47.32Q24.73-45.66 23.28-43.44L23.28-43.44L23.28-43.44Q21.84-41.21 20.88-38.69L20.88-38.69L20.88-38.69Q19.92-36.17 19.43-33.48L19.43-33.48L19.43-33.48Q18.95-30.78 18.95-28.20L18.95-28.20L18.95-28.20Q18.95-24.10 19.90-20.04L19.90-20.04L19.90-20.04Q20.86-15.98 22.95-12.73L22.95-12.73L22.95-12.73Q25.04-9.49 28.36-7.48L28.36-7.48L28.36-7.48Q31.68-5.47 36.41-5.47L36.41-5.47L36.41-5.47Q38.98-5.47 40.43-6.62L40.43-6.62L40.43-6.62Q41.88-7.77 41.88-10.66L41.88-10.66L41.88-27.93L57.38-27.93L57.38 0L52.89 0L50.16-4.41L50.16-4.41Q46.41-1.56 41.89-0.21L41.89-0.21L41.89-0.21Q37.38 1.13 32.70 1.13L32.70 1.13L32.70 1.13Q28.55 1.13 24.75 0.12L24.75 0.12L24.75 0.12Q20.94-0.90 17.66-2.77L17.66-2.77L17.66-2.77Q14.38-4.65 11.70-7.30L11.70-7.30L11.70-7.30Q9.02-9.96 7.13-13.20L7.13-13.20L7.13-13.20Q5.23-16.45 4.20-20.25L4.20-20.25L4.20-20.25Q3.16-24.06 3.16-28.20L3.16-28.20L3.16-28.20Q3.16-32.34 4.20-36.15L4.20-36.15L4.20-36.15Q5.23-39.96 7.13-43.22L7.13-43.22L7.13-43.22Q9.02-46.48 11.70-49.14L11.70-49.14L11.70-49.14Q14.38-51.80 17.66-53.67L17.66-53.67L17.66-53.67Q20.94-55.55 24.75-56.56L24.75-56.56L24.75-56.56Q28.55-57.58 32.70-57.58L32.70-57.58L32.70-57.58Q36.68-57.58 40.49-56.64L40.49-56.64L40.49-56.64Q44.30-55.70 47.58-53.81L47.58-53.81L47.58-53.81Q50.86-51.91 53.42-49.04L53.42-49.04L53.42-49.04Q55.98-46.17 57.46-42.30" fill="#51cacc" stroke="none" stroke-width="none" transform="translate(-67.42498779296875,22.095101623535157)" style="fill: rgb(81, 202, 204);"></path></g><g class="path" style="opacity: 1; transform-origin: 34.395px -6.0299px; animation: 1s linear 0s infinite normal forwards running blink-1ba32864-aa53-4e63-8c0a-7b284212a6fa;"><path d="M92.42 0L79.57-41.95L75.20 0L65.63 0L75.20-56.25L89.38-56.25L102.54-13.32L115.86-56.25L130.04-56.25L138.01 0L122.23 0L117.58-40.86L106.60 0L92.42 0" fill="#51cacc" stroke="none" stroke-width="none" transform="translate(-67.42498779296875,22.095101623535157)" style="fill: rgb(157, 248, 113);"></path></g></g>
</g>
</g>
<style id="blink-1ba32864-aa53-4e63-8c0a-7b284212a6fa" data-anikit="">@keyframes blink-1ba32864-aa53-4e63-8c0a-7b284212a6fa {
  0% { opacity: 1; }
  49.75% { opacity: 1; }
  50.25% { opacity: 0; }
  99.5% { opacity: 0; }
  100% { opacity: 1; }
}</style></svg>