<?xml version="1.0" encoding="utf-8"?>
<svg xmlns="http://www.w3.org/2000/svg" style="margin: auto; background: none; display: block; shape-rendering: auto;" width="155" height="84" preserveAspectRatio="xMidYMid">
<style type="text/css">
  text {
    text-anchor: middle; font-size: 69px; opacity: 0;
  }
</style>
<g style="transform-origin:77.5px 42px;transform:scale(1)">
<g transform="translate(77.5,42)">
  <g transform="translate(0,0)"><g class="path" style="transform: matrix(1, 0, 0, 1, 0, 0); transform-origin: -31.255px -6.75625px; animation: 1.78571s linear -0.883929s infinite normal forwards running tremble-0f821594-86ba-46fa-b194-7f46b1b47f8d;"><path d="M34.70-31.00L26.92 0L14.69 0L1.95-48.52L15.60-48.52L23.65-14.08L30.79-48.52L43.06-48.52L50.87-13.21L59.67-48.52L67.92-48.52L53.81 0L41.54 0L34.70-31.00" fill="#51cacc" stroke="none" stroke-width="none" transform="translate(-66.19000244140625,17.50374855041504)" style="fill: rgb(81, 202, 204);"></path></g><g class="path" style="transform: matrix(1, 0, 0, 1, 0, 0); transform-origin: 13.105px -30.7913px; animation: 1.78571s linear -0.589286s infinite normal forwards running tremble-0f821594-86ba-46fa-b194-7f46b1b47f8d;"><path d="M85.51-48.31L85.51-48.31L85.51-48.31Q85.51-47.03 85.02-45.89L85.02-45.89L85.02-45.89Q84.53-44.74 83.69-43.90L83.69-43.90L83.69-43.90Q82.85-43.06 81.70-42.57L81.70-42.57L81.70-42.57Q80.56-42.08 79.28-42.08L79.28-42.08L79.28-42.08Q78.00-42.08 76.87-42.57L76.87-42.57L76.87-42.57Q75.74-43.06 74.90-43.90L74.90-43.90L74.90-43.90Q74.05-44.74 73.57-45.89L73.57-45.89L73.57-45.89Q73.08-47.03 73.08-48.31L73.08-48.31L73.08-48.31Q73.08-49.59 73.57-50.72L73.57-50.72L73.57-50.72Q74.05-51.85 74.90-52.69L74.90-52.69L74.90-52.69Q75.74-53.54 76.87-54.02L76.87-54.02L76.87-54.02Q78.00-54.51 79.28-54.51L79.28-54.51L79.28-54.51Q80.56-54.51 81.70-54.02L81.70-54.02L81.70-54.02Q82.85-53.54 83.69-52.69L83.69-52.69L83.69-52.69Q84.53-51.85 85.02-50.72L85.02-50.72L85.02-50.72Q85.51-49.59 85.51-48.31" fill="#51cacc" stroke="none" stroke-width="none" transform="translate(-66.19000244140625,17.50374855041504)" style="fill: rgb(157, 248, 113);"></path></g><g class="path" style="transform: matrix(1, 0, 0, 1, 0, 0); transform-origin: 13.1px -1.93625px; animation: 1.78571s linear -0.294643s infinite normal forwards running tremble-0f821594-86ba-46fa-b194-7f46b1b47f8d;"><path d="M85.00-38.88L85.00 0L73.58 0L73.58-38.88L85.00-38.88" fill="#51cacc" stroke="none" stroke-width="none" transform="translate(-66.19000244140625,17.50374855041504)" style="fill: rgb(224, 255, 119);"></path></g><g class="path" style="transform: matrix(1, 0, 0, 1, 0, 0); transform-origin: 48.245px 1.71875px; animation: 1.78571s linear 0s infinite normal forwards running tremble-0f821594-86ba-46fa-b194-7f46b1b47f8d;"><path d="M134.33-22.30L134.33-22.30L134.33-22.30Q134.33-18.36 133.37-14.08L133.37-14.08L133.37-14.08Q132.41-9.80 130.69-5.69L130.69-5.69L130.69-5.69Q128.97-1.58 126.58 2.04L126.58 2.04L126.58 2.04Q124.19 5.66 121.32 8.29L121.32 8.29L117.04 5.96L117.04 5.96Q117.95 4.28 118.76 2.19L118.76 2.19L118.76 2.19Q119.57 0.10 120.23-2.24L120.23-2.24L120.23-2.24Q120.88-4.58 121.41-7.08L121.41-7.08L121.41-7.08Q121.93-9.57 122.28-12.01L122.28-12.01L122.28-12.01Q122.64-14.45 122.82-16.76L122.82-16.76L122.82-16.76Q123.01-19.07 123.01-21.06L123.01-21.06L123.01-21.06Q123.01-22.37 122.91-23.87L122.91-23.87L122.91-23.87Q122.81-25.37 122.49-26.87L122.49-26.87L122.49-26.87Q122.17-28.37 121.63-29.75L121.63-29.75L121.63-29.75Q121.09-31.13 120.19-32.18L120.19-32.18L120.19-32.18Q119.30-33.22 118.04-33.86L118.04-33.86L118.04-33.86Q116.77-34.50 115.06-34.50L115.06-34.50L115.06-34.50Q113.37-34.50 112.06-33.74L112.06-33.74L112.06-33.74Q110.74-32.98 109.73-31.75L109.73-31.75L109.73-31.75Q108.72-30.52 108.00-28.94L108.00-28.94L108.00-28.94Q107.27-27.36 106.82-25.69L106.82-25.69L106.82-25.69Q106.36-24.02 106.16-22.40L106.16-22.40L106.16-22.40Q105.96-20.79 105.96-19.51L105.96-19.51L105.96 0L94.54 0L94.54-38.91L98.92-38.91L104.14-29.85L104.14-29.85Q105.08-32.11 106.50-33.96L106.50-33.96L106.50-33.96Q107.91-35.81 109.70-37.13L109.70-37.13L109.70-37.13Q111.48-38.44 113.66-39.15L113.66-39.15L113.66-39.15Q115.83-39.86 118.36-39.86L118.36-39.86L118.36-39.86Q122.40-39.86 125.40-38.54L125.40-38.54L125.40-38.54Q128.40-37.23 130.39-34.89L130.39-34.89L130.39-34.89Q132.37-32.55 133.35-29.33L133.35-29.33L133.35-29.33Q134.33-26.11 134.33-22.30" fill="#51cacc" stroke="none" stroke-width="none" transform="translate(-66.19000244140625,17.50374855041504)" style="fill: rgb(222, 157, 214);"></path></g></g>
</g>
</g>
<style id="tremble-0f821594-86ba-46fa-b194-7f46b1b47f8d" data-anikit="">@keyframes tremble-0f821594-86ba-46fa-b194-7f46b1b47f8d {
  0% { transform: translate(0px,0px) rotate(0deg) scale(1) }
  3.33333% { transform: translate(-0.18923px,1.45485px) rotate(0deg) scale(1) }
  6.66667% { transform: translate(-0.84296px,-1.32524px) rotate(0deg) scale(1) }
  10% { transform: translate(0.67971px,1.00422px) rotate(0deg) scale(1) }
  13.33333% { transform: translate(-0.5056px,0.83616px) rotate(0deg) scale(1) }
  16.66667% { transform: translate(1.31368px,-0.51401px) rotate(0deg) scale(1) }
  20% { transform: translate(-1.21184px,1.49193px) rotate(0deg) scale(1) }
  23.33333% { transform: translate(1.09065px,-0.21259px) rotate(0deg) scale(1) }
  26.66667% { transform: translate(-1.49916px,0.56159px) rotate(0deg) scale(1) }
  30% { transform: translate(1.48086px,1.21228px) rotate(0deg) scale(1) }
  33.33333% { transform: translate(-1.43889px,-1.152px) rotate(0deg) scale(1) }
  36.66667% { transform: translate(1.35914px,1.34835px) rotate(0deg) scale(1) }
  40% { transform: translate(-1.42834px,0.3091px) rotate(0deg) scale(1) }
  43.33333% { transform: translate(1.47472px,-1.49889px) rotate(0deg) scale(1) }
  46.66667% { transform: translate(-0.92402px,1.4416px) rotate(0deg) scale(1) }
  50% { transform: translate(1.0657px,-0.75306px) rotate(0deg) scale(1) }
  53.33333% { transform: translate(-1.19035px,-1.07484px) rotate(0deg) scale(1) }
  56.66667% { transform: translate(0.28828px,0.79337px) rotate(0deg) scale(1) }
  60% { transform: translate(-0.47167px,-1.42789px) rotate(0deg) scale(1) }
  63.33333% { transform: translate(0.64753px,-0.09795px) rotate(0deg) scale(1) }
  66.66667% { transform: translate(0.41006px,-0.26292px) rotate(0deg) scale(1) }
  70% { transform: translate(-0.22477px,-1.3683px) rotate(0deg) scale(1) }
  73.33333% { transform: translate(0.03588px,0.92931px) rotate(0deg) scale(1) }
  76.66667% { transform: translate(-1.01937px,-1.18398px) rotate(0deg) scale(1) }
  80% { transform: translate(0.8724px,-0.60494px) rotate(0deg) scale(1) }
  83.33333% { transform: translate(-0.71151px,1.4786px) rotate(0deg) scale(1) }
  86.66667% { transform: translate(1.40734px,-1.49607px) rotate(0deg) scale(1) }
  90% { transform: translate(-1.33062px,0.46957px) rotate(0deg) scale(1) }
  93.33333% { transform: translate(1.23264px,1.26738px) rotate(0deg) scale(1) }
  96.66667% { transform: translate(-1.48975px,-1.03867px) rotate(0deg) scale(1) }
  100% { transform: translate(0,0) rotate(0) scale(1) }
}</style></svg>